<svg xmlns="http://www.w3.org/2000/svg" version="1.1" viewBox="0 0 64 64">
  <path
    d="M19.04 24.53H4.02V39.4h15.02V24.53zm-14.77.25H18.8v7H4.27v-7zM25.55 30.36h3.43l.73 1.54h1.27l-3.1-6.35h-1.24l-3.09 6.35h1.27l.73-1.54zm1.72-3.61l1.22 2.57h-2.45l1.23-2.57zM37.19 30.85h-4.25v-5.3h-1.17v6.35h5.42zM41.29 25.55h-3.33v6.35h3.51c1.74 0 3.13-1.42 3.13-3.18-.01-1.91-1.31-3.17-3.31-3.17zm0 5.28h-2.15v-4.22h2.15c1.38 0 2.09.91 2.09 2.1-.01 1.22-.71 2.12-2.09 2.12zM25.43 34.5l-1.88 4.9h.8l.47-1.25h1.82l.47 1.25h.83L26 34.5h-.57zm-.38 3.01l.41-1.11c.14-.39.22-.61.27-.79h.02c.04.17.11.39.25.79l.39 1.11h-1.34zM31.42 35.9h-.77v2.54c-.17.2-.48.37-.81.37-.27 0-.45-.11-.54-.34-.05-.13-.07-.27-.07-.47v-2.1h-.77v2.2c0 .31.03.51.1.7.2.53.67.67 1.02.67.46 0 .83-.2 1.11-.45l.13.38h.67c-.05-.18-.07-.49-.07-.97V35.9zM33.79 38.84c-.23 0-.35-.13-.35-.44v-1.9h.86l.19-.61h-1.05v-1.04l-.77.24v.81h-.62v.61h.62v2.07c0 .57.35.9.93.9.35 0 .73-.1.98-.27l-.24-.53c-.14.08-.34.16-.55.16zM36.67 35.81c-1.03 0-1.71.78-1.71 1.83 0 1.04.69 1.84 1.71 1.84s1.71-.79 1.71-1.84c-.01-1.05-.69-1.83-1.71-1.83zm0 3.03c-.59 0-.92-.5-.92-1.21 0-.7.33-1.2.92-1.2.59 0 .91.5.91 1.2 0 .71-.33 1.21-.91 1.21zM43.2 35.81c-.41 0-.85.2-1.28.56-.17-.37-.5-.56-.92-.56-.44 0-.84.21-1.19.5l-.08-.41h-.64v3.5h.77v-2.51c.27-.23.59-.41.91-.41.46 0 .55.36.55.81v2.11h.77v-2.35c0-.06 0-.12-.01-.16.28-.23.6-.41.91-.41.47 0 .56.36.56.8v2.12h.77v-2.33c0-.92-.52-1.26-1.12-1.26zM46.73 35.81c-1.03 0-1.71.78-1.71 1.83 0 1.04.69 1.84 1.71 1.84s1.71-.79 1.71-1.84-.68-1.83-1.71-1.83zm0 3.03c-.59 0-.92-.5-.92-1.21 0-.7.33-1.2.92-1.2.59 0 .91.5.91 1.2.01.71-.32 1.21-.91 1.21zM50.58 38.84c-.23 0-.35-.13-.35-.44v-1.9h.86l.19-.61h-1.05v-1.04l-.77.24v.81h-.62v.61h.62v2.07c0 .57.35.9.93.9.35 0 .73-.1.98-.27l-.24-.53c-.14.08-.33.16-.55.16zM51.96 35.9h.77v3.5h-.77zM52.35 34.3c-.28 0-.48.21-.48.47 0 .27.2.47.48.47.27 0 .48-.21.48-.47 0-.27-.2-.47-.48-.47zM54.99 38.42h-.01l-.92-2.52h-.79l1.41 3.52h.59l1.4-3.52h-.78zM59.98 37.65c0-1.13-.55-1.84-1.51-1.84-.95 0-1.54.77-1.54 1.83 0 .97.53 1.84 1.75 1.84.42 0 .85-.1 1.19-.33l-.23-.53c-.25.14-.53.24-.88.24-.64 0-1.03-.42-1.05-1.02h2.26v-.19zm-2.27-.36c.01-.47.28-.88.75-.88.5 0 .71.44.73.88h-1.48z"
  />
  <path fill="#fff" fill-rule="evenodd" d="M6.65 31.44h9.77v.91H6.65z" />
</svg>
