<svg xmlns="http://www.w3.org/2000/svg" version="1.1" viewBox="0 0 64 64">
  <path
    d="M7.64 40.94v-.02c.62-.16 1.01-.57 1.01-1.31 0-1.08-.91-1.42-1.98-1.42h-1.9v5.71h1.88c1.31 0 2.24-.42 2.24-1.59 0-.82-.56-1.26-1.25-1.37zm-1.68-1.83h.58c.61 0 .91.23.91.69 0 .51-.28.74-.94.74h-.55v-1.43zm.64 3.86h-.64V41.4h.69c.71 0 1.01.27 1.01.81 0 .55-.36.76-1.06.76zM13.05 41.16c0-1.11-.54-1.54-1.68-1.54-.79 0-1.36.29-1.69.6l.5.69c.25-.2.61-.39 1.07-.39.51 0 .68.18.68.58v.24h-.15c-1.11 0-2.23.39-2.23 1.48 0 .75.55 1.18 1.26 1.18.55 0 .94-.27 1.18-.55.01.13.03.34.07.45h1.13c-.06-.27-.12-.66-.12-1.24v-1.5zm-1.13 1.64c-.18.21-.42.37-.77.37-.27 0-.51-.13-.51-.44 0-.49.46-.69 1.13-.69h.15v.76zM26.16 41.16c0-1.11-.54-1.54-1.68-1.54-.79 0-1.36.29-1.69.6l.5.69c.25-.2.61-.39 1.07-.39.51 0 .68.18.68.58v.24h-.15c-1.11 0-2.23.39-2.23 1.48 0 .75.55 1.18 1.26 1.18.55 0 .95-.27 1.18-.55.01.13.03.34.07.45h1.13c-.06-.27-.12-.66-.12-1.24v-1.5zm-1.13 1.64c-.18.21-.42.37-.77.37-.27 0-.51-.13-.51-.44 0-.49.46-.69 1.13-.69h.15v.76zM16.6 39.62c-.61 0-1.03.27-1.33.63v-.52h-1.12v4.18h1.14v-2.8c.16-.24.49-.52.86-.52.41 0 .56.21.56.64v2.69h1.14v-2.93c.01-.8-.34-1.37-1.25-1.37zM20.92 43.12c-.71 0-1.05-.56-1.05-1.34s.34-1.3 1.02-1.3c.42 0 .68.12.88.25l.37-.78c-.2-.13-.59-.33-1.28-.33-1.26 0-2.2.79-2.2 2.2 0 1.3.82 2.19 2.17 2.19.76 0 1.15-.25 1.35-.38l-.35-.76c-.13.07-.43.25-.91.25zM55.92 28.23c-.57.57-.57 2.34 0 2.92.57.57 2.32.57 2.89 0 .57-.57.57-2.34 0-2.92-.57-.57-2.32-.57-2.89 0zM58.81 25.61c.57-.57.57-2.34 0-2.92-.57-.57-2.32-.57-2.89 0-.57.57-.57 2.34 0 2.92.57.58 2.32.58 2.89 0zM52.85 24.21c-.02-2.79-1.53-4.21-4.63-4.21h-5.81v13.59h3.12v-4.93h2.3l2.48 4.93h3.57l-3.28-5.55c1.49-.77 2.27-2.38 2.25-3.83zm-4.8 1.93h-2.5v-3.47h2.57c1.14 0 1.51.46 1.51 1.5 0 1.15-.41 1.97-1.58 1.97zM23.36 20h-5.53v13.59h3.13V22.67h2.47c1.18 0 1.61.45 1.61 1.74 0 1.47-.99 2.31-2.72 2.31h-.62l.52 2.41h.57c3.46 0 5.47-1.96 5.47-4.58 0-2.99-1.18-4.55-4.9-4.55zM15.63 29.64c0-1.71-.75-2.84-2.28-3.21v-.03c.98-.38 1.73-1.6 1.73-2.93 0-2.05-1.17-3.46-4.04-3.46H4.77V33.6h6.39c2.78-.01 4.47-1.44 4.47-3.96zm-7.74-6.97h2.75c1.07 0 1.34.32 1.34 1.35 0 .96-.49 1.45-1.34 1.45H7.89v-2.8zm0 8.23v-3.06h2.88c1.09 0 1.58.42 1.58 1.44 0 1.13-.68 1.61-1.76 1.61h-2.7zM33.29 27.94h5.28v-2.62h-5.28v-2.56h6.23V20h-9.35v13.59h9.64v-2.77h-6.52z"
  />
</svg>
