<svg xmlns="http://www.w3.org/2000/svg" version="1.1" viewBox="0 0 64 64">
  <path
    d="M43.99 30.98c.05-.66.02-1.31-.12-1.95-.89-4.35-4.89-8.76-6.69-10.21a10.473 10.473 0 00-5.39-2.28c-1.04-.12-2.1-.02-3.14.3-1.85.58-4.39 1.86-6 4.73-1.71 3.03-3.35 8.01-2.36 12.04.71 2.92 3.24 5.04 6.29 5.26.5.04 1.02.05 1.55.05 3.57 0 7.6-.77 9.1-1.24l.13-.04c2.33-.72 6.24-1.93 6.63-6.66zm-6.84 6l-.13.04c-1.68.52-6.62 1.43-10.39 1.15-2.75-.2-5.02-2.11-5.67-4.74-.94-3.83.65-8.6 2.3-11.53 1.5-2.67 3.87-3.87 5.6-4.4.69-.21 1.38-.32 2.07-.32.26 0 .52.02.78.05 1.87.22 3.56.94 5.04 2.13 1.74 1.4 5.59 5.64 6.44 9.8.12.58.15 1.17.1 1.76-.35 4.26-3.83 5.34-6.14 6.06z"
  />
  <path
    d="M36.95 20.85c-1.62-.92-3.56-.39-4.88.09-1.12.41-2.85.56-4.74.41-1.71-.13-2.66.9-2.77 1.02-3.92 3.83-2.37 9.79-1.4 11.41.49.82 1.19 1.11 1.96 1.11 1.07 0 2.3-.55 3.38-1.03.36-.16.71-.32 1.05-.45 2.25-.9 4.99-1.07 8.39-.51.9.15 1.68-.07 2.25-.63.74-.73 1.1-2.05.91-3.36-.63-5.42-2.55-7.15-4.15-8.06zm2.93 11.07c-.47.46-1.09.62-1.85.5-3.48-.57-6.31-.39-8.64.54-.34.14-.7.3-1.07.46-1.86.83-3.79 1.69-4.74.11-1.06-1.77-2.2-7.4 1.33-10.84l.02-.02c.01-.01.75-.87 2.12-.87.08 0 .17 0 .26.01 1.98.15 3.74 0 4.94-.43 1.23-.45 3.03-.94 4.48-.12 1.5.85 3.31 2.5 3.93 7.7.16 1.17-.15 2.34-.78 2.96z"
  />
  <path
    d="M30.22 26.92c0-1.58-1.29-2.87-2.88-2.87-1.59 0-2.88 1.29-2.88 2.87s1.29 2.87 2.88 2.87c1.59.01 2.88-1.28 2.88-2.87zm-2.87 2.4c-1.33 0-2.41-1.08-2.41-2.4s1.08-2.4 2.41-2.4c.66 0 1.27.27 1.7.71-.26-.14-.55-.23-.87-.23a1.81 1.81 0 101.25 3.12 2.42 2.42 0 01-2.08 1.2zM38.23 25.9c0-1.61-1.31-2.91-2.92-2.91s-2.92 1.31-2.92 2.91 1.31 2.91 2.92 2.91 2.92-1.31 2.92-2.91zm-2.92 2.44c-.71 0-1.35-.31-1.79-.79.28.18.61.28.96.28a1.81 1.81 0 100-3.62c-.54 0-1.02.24-1.36.62a2.437 2.437 0 014.63 1.07c0 1.35-1.09 2.44-2.44 2.44zM27.49 23.46c-1.03-.39-2.37-.94-2.8 1.26 0 0 .67-1.34 2.8-1.26zM37.32 23.18c-.51-.87-1.42-2.17-3.04-.59.01 0 1.7-.59 3.04.59zM33.82 29.85c-1.75.95-4.71.65-4.74.65-.35-.03-.66.09-.81.31a.48.48 0 00-.04.49c.09.18.36.48 1.2.52.36.02.69.03 1.01.03 3.23 0 4.32-.99 4.52-1.2.24-.26.29-.61.11-.84-.11-.13-.44-.39-1.25.04zm.9.59c-.55.6-2.26 1.25-5.28 1.07-.58-.03-.86-.2-.94-.34a.168.168 0 01.01-.18c.06-.08.2-.17.44-.17h.08c.14.02 3.09.31 4.92-.69.5-.27.77-.23.85-.13.1.11.05.29-.08.44zM25.14 32.37c-.26.67.28 1.04.69.98.41-.06.63-.61.75-1s.41-.71.73-.73c0 .01-1.68-.35-2.17.75zM36.32 30.41c.3-.1.69.07.96.39.26.32.68.74 1.08.64.4-.11.75-.66.25-1.17-.88-.83-2.29.14-2.29.14zM15.95 43.56c-.44-.35-1.05-.52-1.82-.52h-2.88v4.48h2.61c.85 0 1.47-.12 1.84-.35.66-.41.99-1.05.99-1.92 0-.75-.24-1.31-.74-1.69zm-.92 2.87c-.29.16-.75.24-1.39.24h-1.35v-2.84h1.85c.98 0 1.48.47 1.48 1.4 0 .58-.2.98-.59 1.2zM20.12 43.04l-2.54 4.48h1.04l.52-.98h2.84l.54.98h1.17l-2.57-4.48h-1zm-.53 2.69l1-1.82.96 1.82h-1.96zM29.46 45.76c.35-.1.52-.37.52-.81V43.9c0-.58-.34-.87-1.01-.87h-3.84v4.48h1.03v-1.69h.99l1.81 1.69h1.49l-2.07-1.69c.59 0 .95-.02 1.08-.06zm-3.3-.7v-1.25h2.35c.16 0 .27.02.34.06.09.05.13.14.13.29v.54c0 .15-.04.25-.13.29-.06.04-.18.06-.34.06h-2.35zM36.12 46.67h-2.97v-3.63H32.1v3.42c0 .42.08.7.24.84.16.14.45.22.87.22h2.83c.42 0 .71-.07.87-.22.16-.14.24-.42.24-.84v-3.42h-1.04v3.63zM42.4 45.74l-2.11-2.71h-.84v4.48h.84v-2.8c0-.12-.01-.26-.03-.44.06.14.15.3.27.46l1.69 2.25h.21l1.69-2.24c.12-.2.21-.36.26-.47-.02.21-.03.36-.03.46v2.78h.96v-4.48h-.83l-2.08 2.71zM50.18 43.04h-1.01l-2.54 4.48h1.04l.52-.98h2.84l.54.98h1.17l-2.56-4.48zm-1.54 2.69l1-1.82.96 1.82h-1.96z"
  />
</svg>
