<svg xmlns="http://www.w3.org/2000/svg" version="1.1" viewBox="0 0 64 64">
  <path
    d="M52.83 33.03c-.62-3.57-3.76-6.29-7.51-6.29-4.2 0-7.61 3.4-7.61 7.6 0 4.2 3.41 7.6 7.61 7.6 2.46 0 4.65-1.16 6.04-2.97l-1.8-1.38a5.325 5.325 0 01-4.23 2.08c-2.95 0-5.34-2.39-5.34-5.33s2.39-5.33 5.34-5.33c2.5 0 4.61 1.71 5.19 4.02h-5.63v2.27h7.95v-2.27zM19.67 33.03c-.62-3.57-3.76-6.29-7.51-6.29-4.2 0-7.61 3.4-7.61 7.6 0 4.2 3.41 7.6 7.61 7.6 2.46 0 4.65-1.16 6.04-2.97l-1.8-1.38a5.325 5.325 0 01-4.23 2.08c-2.95 0-5.34-2.39-5.34-5.33s2.39-5.33 5.34-5.33c2.5 0 4.61 1.71 5.19 4.02h-5.63v2.27h7.95v-2.27zM57.37 36.82V22.07H55.1v14.75c0 2.39 1.12 3.83 3.05 5.1l1.3-1.86c-1.32-.9-2.08-1.6-2.08-3.24M35.57 33.02c0-3.51-2.84-6.28-6.31-6.28-1.98 0-3.76.79-5.06 2.07v-1.45h-2.27v7.93h2.27v-1.88c.34-1.82 1.96-4.41 5.05-4.41 2.22 0 4.04 1.75 4.04 4.01v8.68h2.27v-8.67z"
  />
</svg>
