<svg xmlns="http://www.w3.org/2000/svg" version="1.1" viewBox="0 0 64 64">
  <path
    d="M5.53 24.83h2.13V37.4h5.16v2.01H5.53zM14.34 24.82h2.19V39.4h-2.19zM50.66 24.45c-4.31 0-7.81 3.41-7.81 7.61s3.5 7.61 7.81 7.61 7.81-3.41 7.81-7.61-3.5-7.61-7.81-7.61zm.03 13.24c-3.05 0-5.52-2.52-5.52-5.63s2.47-5.63 5.52-5.63c3.05 0 5.52 2.52 5.52 5.63s-2.47 5.63-5.52 5.63zM18.4 24.83h2.19v10.43c0 .42.27 2.46 2.75 2.46s2.9-2.02 2.9-2.46V24.83h2.19v10.43s-.34 4.42-5.08 4.42c-4.75 0-4.93-4.42-4.93-4.42l-.02-10.43zM33.03 29.57c1.07 0 1.94.85 1.94 1.91 0 1.05-.87 1.91-1.94 1.91-1.07 0-1.94-.85-1.94-1.91 0-1.05.87-1.91 1.94-1.91z"
  />
  <path
    d="M38.74 24.83h2.19v10.43s.36 4.42-4.13 4.42c-3.55 0-4.13-3.27-4.13-3.27h2.34s.16 1.33 1.79 1.31c2.17 0 1.94-2.46 1.94-2.46V24.83z"
  />
</svg>
