<svg xmlns="http://www.w3.org/2000/svg" version="1.1" viewBox="0 0 64 64">
  <path
    d="M16.04 38.76c-2.91-.01-4.58-2.47-4.58-6.76 0-2.53.66-4.56 1.87-5.72.75-.72 1.68-1.07 2.7-1.03 1.02-.04 1.97.32 2.72 1.05 1.21 1.16 1.88 3.19 1.88 5.71 0 4.27-1.67 6.74-4.59 6.75zm-.15-13.33c-.92 0-1.76.34-2.43.99-1.17 1.12-1.81 3.11-1.81 5.59 0 4.16 1.6 6.56 4.4 6.57 2.8-.01 4.4-2.41 4.4-6.57 0-2.47-.65-4.45-1.82-5.58a3.453 3.453 0 00-2.59-.99c-.06-.01-.1-.01-.15-.01zm-4.35 13.14l-3.85-.02.02-.11c.03-.22.07-1.83.07-1.95 0-.19-.03-1.01-.08-2.45l-.89 3.22H4.6l-.9-3.21c0 .05 0 .09-.01.14-.07 1.46-.14 2.84.06 4.26l.01.11H.84l.01-.1c.03-.26.15-1.69.2-2.21.05-.63.36-7.69.36-8.57 0-.24-.05-.83-.47-1.2l-.03-.03.01-1.08h4.1l.02.07 1.19 4.44 1.25-4.51h3.51v.09c0 .02.01.57-.01.72-.01.06 0 .25 0 .49v.64c0 .42.14 4.09.23 6.53.04 1.04.07 1.84.08 2.01.02.55.22 2.59.23 2.61l.02.11zm-10.49-.19h2.5c-.18-1.4-.11-2.82-.04-4.19l.03-.72.18-.02 1.02 3.63h1.92l1.02-3.67.18.02c.07 1.82.1 2.85.1 3.06 0 .1-.03 1.43-.06 1.87l3.43.02c-.04-.43-.2-2.03-.22-2.52-.01-.17-.04-.97-.08-2.01-.09-2.43-.23-6.11-.23-6.53v-1.15c.01-.11.01-.45.01-.61H7.63l-1.4 5.04-.09-.33c-.48-1.79-1.14-4.26-1.26-4.7H1.11l-.01.8c.45.42.5 1.05.5 1.31 0 .88-.31 7.95-.36 8.59-.03.37-.14 1.67-.19 2.11zm53.18.19l-3.87-.01v.01h-4.48l-.58-3.05-1.55.81-.38 2.24H37.4l-2.56-5.19v3.37c0 .29.15 1.71.16 1.72l.01.1h-3.02l.01-.1c.09-.82.13-1.63.13-2.41v-.34c.02-5.87.02-7.61.02-8.03-.01-.99-.11-2.2-.11-2.21l-.01-.1h3.16l2.47 5.03v-2.53c0-.89-.12-1.19-.4-1.5l-.02-.03v-.97h3.34l-.01.1s-.07.64-.1.99c-.1 1.16-.08 2.37-.07 3.53 0 .32.01.64.01.95v3.26c0 .02-.01 2.41 0 2.82 0 .19.02.51.04.8.56-1.85 1.11-3.99 1.64-6.07.35-1.37.68-2.67 1.01-3.86.23-.83.11-1.17-.21-1.54l-.02-.03v-.96h4.07l.02.07c.02.09 2.3 9.15 2.54 10.15.16.65.48 1.72.68 2.34.01-.12.01-.22.01-.28v-.06c.07-1.62.05-3.28.04-4.88-.02-1.44-.03-2.94.02-4.4.04-1.09-.05-1.53-.39-1.91l-.02-.03v-1.01h3.67c1.47 0 3.28 0 4.31 1.47.67.95.91 2.11.7 3.25-.2 1.1-.81 2.04-1.71 2.67.1.26.2.52.29.78.64 1.71 1.25 3.32 2.16 4.87l.08.14H54.9l-.84-2.35v.15c0 .8.16 2.08.16 2.09l.01.14zm.8-.19h3.98c-.88-1.52-1.47-3.09-2.1-4.76-.1-.27-.2-.53-.3-.8l-.04-.11.06-.04c.89-.6 1.49-1.52 1.69-2.6.2-1.09-.03-2.2-.67-3.11-.97-1.4-2.66-1.4-4.16-1.39h-3.48v.75c.4.46.45 1.02.42 2.01-.05 1.46-.03 2.95-.02 4.39.02 1.6.04 3.26-.04 4.89v.06c-.01.15-.02.5-.04.7l3.69.01c-.04-.33-.15-1.33-.15-2.01v-.69l.18-.03.98 2.73zm-8.99 0h4.07c-.14-.43-.61-1.91-.8-2.74-.23-.95-2.3-9.22-2.52-10.08h-3.73v.7c.33.39.47.8.22 1.69-.33 1.19-.66 2.48-1.01 3.86-.58 2.26-1.17 4.59-1.79 6.55v.01h2.74l.37-2.18 1.85-.97.6 3.16zm-8.52 0h2.77c-.02-.27-.06-1.01-.07-1.34-.01-.41 0-2.8 0-2.82v-3.26c0-.32-.01-.63-.01-.95-.02-1.17-.03-2.38.07-3.55.02-.26.07-.69.09-.89h-2.94v.72c.32.38.42.76.42 1.6v2.94l-.18.04-2.6-5.29h-2.84c.02.31.1 1.29.1 2.12 0 .42 0 2.16-.02 8.03v.34c0 .75-.04 1.53-.12 2.32h2.6c-.04-.34-.15-1.38-.15-1.64v-3.77l.18-.04 2.7 5.44zm-10.22.19h-6.49l.03-.41c.04-.53.11-1.53.11-1.87v-8.44c0-.75-.15-1.09-.42-1.47l-.02-.02v-.97h4.44l-.03.12c-.06.22-.16 1.25-.16 1.4v8.52c.71-.02 2.42-.25 2.43-.25l.11-.01v3.4zm-6.29-.19h6.1l-.01-3.01c-.41.05-1.88.24-2.45.24h-.09V26.9c0-.15.08-.97.14-1.33h-4.01v.72c.28.39.44.78.44 1.56v8.44c0 .35-.07 1.31-.11 1.88l-.01.21zm10.59.19h-4.16l.12-.86c0-.03.02-.21.03-1.13v-8.23c.02-1.21 0-1.4-.43-1.89l-.02-.03.01-1.05h4.49l-.02.11c0 .01-.12.71-.14.84-.07.55-.06 1.13-.04 1.64v6.51c0 .02-.01 2.24 0 2.52.01.26.15 1.45.15 1.46l.01.11zm-3.95-.19h3.74c-.03-.3-.13-1.15-.14-1.38-.01-.28 0-2.44 0-2.53v-6.51c-.01-.51-.02-1.1.05-1.66.01-.1.09-.54.12-.74h-4.08l-.01.8c.44.52.47.75.45 1.99v8.21c-.01.49-.02 1.08-.03 1.17l-.1.65zM16.27 28.12l.01.01c.68.68.69 3.12.67 3.85v.03c0 .43 0 1.26-.09 2.06-.14 1.25-.41 1.87-.83 1.87-.33-.01-.58-.44-.74-1.3-.36-1.93-.22-5.8.49-6.5.03-.03.11-.1.25-.1.13 0 .24.08.24.08zm-.25.1a.15.15 0 00-.11.05c-.57.48-.84 4.22-.44 6.33.14.73.34 1.15.56 1.15.17 0 .49-.23.65-1.7.09-.79.09-1.62.09-2.04v-.03c.03-1.4-.12-3.21-.62-3.71-.06-.06-.13-.05-.13-.05zm28.21 4.99l.37-1.77h.18l.28 1.34-.83.43zm.46-1.3l-.2.95.36-.19-.16-.76zm9.18-.87v-2.83h.1c.51.02.84.38.89.95.06.78-.05 1.27-.84 1.78l-.15.1zm.18-2.63v2.28c.53-.38.67-.75.61-1.51-.02-.27-.12-.7-.61-.77z"
  />
  <path
    d="M63.11 38.57h-4.09l.05-.85c.01-.1.03-.82.03-1.16v-8.21c.02-1.21 0-1.4-.43-1.89l-.02-.03.01-1.05h4.49l-.02.11c0 .01-.12.71-.14.84-.07.55-.06 1.14-.04 1.64v6.51c0 .02-.01 2.24 0 2.52.01.26.14 1.45.15 1.46l.01.11zm-3.89-.19h3.68c-.03-.3-.13-1.15-.13-1.38-.01-.28 0-2.44 0-2.53v-6.51c-.01-.51-.02-1.09.04-1.66.01-.1.09-.54.12-.74h-4.08l-.01.8c.44.52.47.75.45 1.99v8.21c0 .01-.02 1.04-.03 1.17l-.04.65z"
  />
  <path
    d="M62.44 25.98h-3.3s.47.54.53 1.13c.05.59.04 1.18.04 1.26v8.19s-.02 1.1-.04 1.23c-.02.13-.03.18-.03.18h2.8s-.08-.67-.08-.95c-.01-.28 0-2.54 0-2.54v-6.5s-.02-.72 0-.94c.02-.23.03-.63.05-.78.01-.14.03-.28.03-.28z"
  />
  <path
    fill-rule="evenodd"
    d="M51.89 25.98h-1.61s.38.43.47.92c.08.5.1 1.13.08 1.44-.01.31.01 7.61 0 7.94-.01.33-.04 1.11-.05 1.34-.01.23-.03.34-.03.34h2.8s-.1-.75-.1-1.6v-2.83l.23-.13 1.63 4.56h3.03s-.3-.5-.77-1.57c-.47-1.07-1.28-3.2-1.37-3.42l-.16-.44s1.14-.58 1.57-1.58c.42-.95.48-2.59-.33-3.75-.86-1.24-1.87-1.13-2.34-1.18-.48-.05-1.27-.05-1.43-.03-.14.01-1.62-.01-1.62-.01zm1.56 1.82v3.93s1.24-.55 1.56-1.17c.33-.64.28-1.05.25-1.42-.03-.37-.16-.7-.39-.95-.24-.25-.42-.32-.59-.35-.16-.04-.34-.04-.42-.04h-.41zm-6.99-1.82h-3.15s.18.19.33.43c.15.24.19.35.2.62.01.27-.09.74-.17 1.03-.08.29-2.21 8.2-2.37 8.78-.16.57-.24.77-.29.93-.05.16-.08.19-.08.19h1.94l.34-2.04 2.53-1.32.64 3.36h3.21s-.45-1.22-.69-2.23c-.24-1-2.44-9.75-2.44-9.75zm-1.78 3.54l-.97 4.27 1.76-.91-.79-3.36z"
  />
  <path
    d="M30.93 25.98h-3.3s.47.54.53 1.13c.05.59.04 1.18.04 1.26v8.19s-.02 1.1-.04 1.23c-.02.13-.02.18-.02.18h2.79s-.08-.67-.08-.95c-.01-.28 0-2.54 0-2.54v-6.5s-.02-.72 0-.94c.02-.23.03-.63.05-.78 0-.14.03-.28.03-.28zm-6.68 0h-3.29s.37.48.46.8c.09.33.13.71.13 1.06v8.44c0 .17-.05 1.2-.08 1.41-.03.21-.05.26-.05.26h5.28l-.01-2.13s-1.82.2-2.14.19c-.33-.01-.4-.03-.4-.03v-9.1c0-.24.06-.76.07-.82.02-.04.03-.08.03-.08z"
  />
  <path
    fill-rule="evenodd"
    d="M16.03 25.85c2.17-.09 4 1.97 4 6.15 0 4.48-1.79 6.15-3.99 6.15-2.2-.01-3.98-1.68-3.98-6.15 0-4.18 1.8-6.25 3.97-6.15zm1.34 6.14c-.07 3.84-.6 4.35-1.33 4.36-.73-.01-1.26-.52-1.33-4.36-.06-3.12.55-4.37 1.34-4.37.77 0 1.38 1.24 1.32 4.37zm-11.14.17l-1.67-6.18H1.45s.02.05.09.14c.07.09.48.69.48 1.56s-.31 8-.36 8.62c-.05.62-.1 1.19-.14 1.41-.03.22-.05.25-.05.25h1.62s-.1-.73-.07-1.68c.03-.94.26-6.01.26-6.01l1.79 6.39h1.29l1.81-6.53s.22 5.8.22 6.35c0 .55-.07 1.37-.07 1.37l-.03.1h2.6s-.15-1.52-.17-2.09c-.02-.57-.31-7.95-.31-8.55 0-.6-.01-1.06 0-1.18.01-.12.01-.16.01-.16H7.96l-1.73 6.19z"
  />
  <path
    d="M39.7 37.83c-.01-.18-.03-.5-.03-.77-.01-.41 0-2.73 0-2.83v-3.26c0-.11-.02-2.74 0-2.98.01-.1.01-.31.02-.56.01-.37.02-.79.04-1.01.01-.12.02-.21.02-.28H38c.12.16.26.38.31.6.08.33.09.65.09 1.15v5.75l-3.68-7.51h-1.94c.04.26.11.8.11 1.56 0 .43 0 2.17-.02 8.04v.33c0 .08-.03 1.24-.06 1.77h1.36c-.03-.28-.08-.84-.08-1.08v-6.56l3.77 7.64h1.84z"
  />
</svg>
