<svg xmlns="http://www.w3.org/2000/svg" version="1.1" viewBox="0 0 64 64">
  <path
    d="M25.57 29.45c0-.16-.08-.29-.32-.29h-.77v.57h.77c.23.01.32-.11.32-.28zM42.5 30.25c-.98 0-1.79.78-1.79 1.75 0 .96.8 1.75 1.79 1.75s1.79-.78 1.79-1.75c0-.96-.81-1.75-1.79-1.75zM47.08 34.76c-.98 0-1.78.78-1.78 1.75 0 .96.8 1.75 1.78 1.75.99 0 1.79-.78 1.79-1.75 0-.96-.8-1.75-1.79-1.75zM42.5 25.74c-.98 0-1.79.78-1.79 1.75s.8 1.75 1.79 1.75 1.79-.78 1.79-1.75-.81-1.75-1.79-1.75zM28.74 29.42c-.05.24-.11.45-.24.91l-.07.24h.61l-.07-.24c-.12-.47-.18-.67-.23-.91zM25.29 30.5h-.81v.7h.8c.25 0 .37-.15.37-.36 0-.2-.12-.34-.36-.34zM42.5 34.76c-.98 0-1.79.78-1.79 1.75 0 .96.8 1.75 1.79 1.75s1.79-.78 1.79-1.75c0-.96-.81-1.75-1.79-1.75zM11.36 28.44c-.46 0-.83.37-.83.83 0 .46.37.83.83.83.46 0 .83-.37.83-.83a.822.822 0 00-.83-.83z"
  />
  <path
    d="M55.86 22.78H8.14c-1.36 0-2.46 1.1-2.46 2.45v13.54c0 1.36 1.1 2.46 2.46 2.46h47.72c1.36 0 2.46-1.1 2.46-2.46V25.23c0-1.35-1.1-2.45-2.46-2.45zm-44.5 7.57c-.6 0-1.08-.48-1.08-1.08 0-.6.48-1.08 1.08-1.08.6 0 1.08.48 1.08 1.08.01.59-.48 1.08-1.08 1.08zm3.23.47h-.51V32h-1v-3.63h1.58c.86 0 1.43.33 1.43 1.2.01.93-.61 1.25-1.5 1.25zM18.61 32l-.2-.64h-1.1l-.2.64h-1.09l1.33-3.63h1.03L19.71 32h-1.1zm3.1-1.35V32h-1.03v-1.34l-1.36-2.29h1.18l.28.55c.2.38.35.73.42.94.07-.21.23-.56.42-.94l.28-.55h1.16l-1.35 2.28zM25.27 32h-1.76v-3.63h1.77c.91 0 1.28.34 1.28.95 0 .39-.19.57-.44.71.33.14.52.39.52.8.01.74-.45 1.17-1.37 1.17zm4.22 0l-.2-.64h-1.1l-.2.64H26.9l1.33-3.63h1.03L30.59 32h-1.1zm2.99.06c-1.09 0-1.67-.8-1.67-1.87 0-1.17.69-1.87 1.68-1.87.9 0 1.26.38 1.51 1.07l-.92.36c-.13-.34-.26-.55-.59-.55-.43 0-.61.42-.61 1 0 .55.18 1 .62 1 .32 0 .46-.17.66-.51l.84.43c-.24.48-.65.94-1.52.94zm4.24-.06l-.77-1.55-.38.45V32h-1.04v-3.63h1.04v.43c0 .31-.01.63-.02.9.15-.24.47-.66.71-.96l.29-.37h1.24l-1.11 1.28L37.92 32h-1.2zm5.78 6.51c-1.12 0-2.04-.9-2.04-2s.91-2 2.04-2c1.12 0 2.04.9 2.04 2s-.92 2-2.04 2zm0-4.51c-1.12 0-2.04-.9-2.04-2s.91-2 2.04-2c1.12 0 2.04.9 2.04 2s-.92 2-2.04 2zm0-4.51c-1.12 0-2.04-.9-2.04-2s.91-2 2.04-2c1.12 0 2.04.9 2.04 2s-.92 2-2.04 2zm4.58 9.02c-1.12 0-2.03-.9-2.03-2s.91-2 2.03-2c1.12 0 2.04.9 2.04 2s-.91 2-2.04 2zM45.17 32c0-1.03.86-1.87 1.91-1.87 1.06 0 1.91.84 1.91 1.87 0 1.03-.86 1.87-1.91 1.87-1.05 0-1.91-.84-1.91-1.87zm1.91-2.51c-1.12 0-2.03-.9-2.03-2s.91-2 2.03-2c1.12 0 2.04.9 2.04 2s-.91 2-2.04 2zm4.6 8.9c-1.06 0-1.91-.84-1.91-1.87s.86-1.87 1.91-1.87c1.05 0 1.91.84 1.91 1.87s-.86 1.87-1.91 1.87zm0-4.52c-1.06 0-1.91-.84-1.91-1.87 0-1.03.86-1.87 1.91-1.87 1.05 0 1.91.84 1.91 1.87 0 1.03-.86 1.87-1.91 1.87zm0-4.5c-1.06 0-1.91-.84-1.91-1.87 0-1.04.86-1.87 1.91-1.87 1.05 0 1.91.84 1.91 1.87 0 1.03-.86 1.87-1.91 1.87z"
  />
  <path
    d="M47.08 25.74c-.98 0-1.78.78-1.78 1.75s.8 1.75 1.78 1.75c.99 0 1.79-.78 1.79-1.75s-.8-1.75-1.79-1.75zM14.64 29.19h-.55V30h.54c.33 0 .46-.14.46-.42-.01-.23-.13-.39-.45-.39zM17.86 29.42c-.05.24-.1.45-.24.91l-.07.24h.61l-.07-.24c-.12-.47-.18-.67-.23-.91z"
  />
</svg>
