<svg xmlns="http://www.w3.org/2000/svg" version="1.1" viewBox="0 0 64 64">
  <path
    d="M7.24 25.27c-3.6 0-6.52 2.92-6.52 6.51 0 3.6 2.92 6.51 6.52 6.51 3.6 0 6.52-2.92 6.52-6.51.01-3.6-2.91-6.51-6.52-6.51zm0 12.85c-3.51 0-6.36-2.84-6.36-6.35s2.85-6.35 6.36-6.35c3.51 0 6.36 2.84 6.36 6.35s-2.84 6.35-6.36 6.35z"
  />
  <path
    d="M7.24 25.88c-3.26 0-5.91 2.64-5.91 5.9 0 3.26 2.65 5.9 5.91 5.9 3.26 0 5.91-2.64 5.91-5.9a5.9 5.9 0 00-5.91-5.9zm0 11.28c-2.98 0-5.39-2.41-5.39-5.38 0-2.97 2.41-5.38 5.39-5.38 2.98 0 5.39 2.41 5.39 5.38 0 2.97-2.41 5.38-5.39 5.38z"
  />
  <path
    d="M11.34 34.35c-.4-.38-.91-.63-1.46-.72a.132.132 0 00-.15.13v.2c0 .06-.05.13-.11.13h-.13c-.15 0-.18-.19-.15-.3.33-1.18.41-1.89.4-2.41 0-.55-.02-1.1-.27-1.83-.24-.7-.46-1.39-1.62-2.43A.351.351 0 007.6 27c-.11-.01-.21-.01-.32-.01-.48 0-.95.07-1.39.2-.16.05-.14.16-.05.24.44.37 1.03.94 1.44 1.64-.26.03-.46-.12-.62-.28a7.82 7.82 0 00-1.57-1.14c-.08-.04-.16-.06-.23-.02-.5.29-.84.56-1.23 1.02-.07.08-.02.14.04.17.43.23 1.11.66 1.73 1.23-.13.11-.33.07-.62-.08-.56-.29-1.1-.46-1.51-.57-.09-.02-.18 0-.23.08-.26.46-.44 1-.53 1.55-.02.11.06.2.16.22.96.17 2.66.62 2.95 2.58.02.17-.13.32-.34.23-.29-.13-.58-.27-.86-.4-.03-.01-.06-.03-.1-.03H2.96c-.19 0-.27.18-.15.33.33.37.62.78.88 1.21.02.04.05.05.09.05h.59c.04 0 .07-.01.11-.03.19-.11.37-.22.56-.33.03-.02.07-.02.11-.02h4.46c.06 0 .11.04.11.1v.22c0 .08.07.14.15.13.55-.09 1.06-.34 1.46-.72.07-.06.07-.16.01-.22zm-3.22-.82c-.33 0-.6-.27-.6-.6 0-.33.27-.6.6-.6.33 0 .6.27.6.6 0 .33-.27.6-.6.6z"
  />
  <g>
    <path
      d="M49.26 28.52h-3.61c-.09 0-.14.05-.14.14v6.24c0 .09.05.14.14.14h3.61c3.87 0 4.38-.19 4.38-3.23v-.05c-.01-3.05-.51-3.24-4.38-3.24zm2.32 3.3c0 1.67-.14 1.73-2.31 1.73h-1.79V30h1.79c2.17 0 2.31.05 2.31 1.73v.09zM63.26 34.86l-3.13-6.25a.15.15 0 00-.15-.1h-2.77c-.07 0-.13.03-.15.1l-3.13 6.25c-.05.1-.01.16.1.16h1.8c.07 0 .13-.03.15-.1l.47-.92h4.28l.47.92c.03.07.08.1.15.1h1.8c.12.01.15-.06.11-.16zm-6.12-2.22l1.33-2.63h.24l1.33 2.63h-2.9zM21.21 27.95c.05.05.09.07.16.07h1.73c.07 0 .12-.02.16-.07l.82-.94c.07-.08.05-.16-.07-.16h-1.17c-.07 0-.12.03-.16.08l-.35.51h-.19l-.35-.51c-.05-.05-.09-.08-.17-.08h-1.16c-.12 0-.14.08-.07.16l.82.94zM31.66 31.35l3.39-2.67c.1-.07.06-.16-.06-.16h-2.21c-.06 0-.11.02-.16.06l-3.46 2.76v-2.69c0-.09-.05-.14-.14-.14h-1.68c-.09 0-.14.05-.14.14v6.24c0 .09.05.14.14.14h1.68c.09 0 .14-.05.14-.14v-1.57l1.02-.81 2.48 2.44c.05.05.1.07.17.07h2.37c.12 0 .15-.08.06-.16l-3.6-3.51zM39.96 28.38c-3.79 0-4.31.19-4.31 3.35v.09c0 3.16.52 3.35 4.31 3.35 3.8 0 4.31-.19 4.31-3.36v-.08c0-3.16-.51-3.35-4.31-3.35zm2.21 3.44c0 1.83-.07 1.85-2.21 1.85s-2.21-.03-2.21-1.85v-.09c0-1.83.07-1.85 2.21-1.85s2.21.03 2.21 1.85v.09zM23.5 31.09l-2.43-.07c-1.11-.04-1.13-.15-1.13-.65 0-.52.14-.52 2.81-.52.51 0 2.12.03 2.97.04.09 0 .14-.04.14-.14v-1.1c0-.09-.05-.14-.13-.14-.84-.05-2.22-.09-3.21-.09-3.88 0-4.5.07-4.5 2.07 0 1.71.38 1.94 2.86 2.02l2.23.07c1.04.04 1.06.16 1.06.55 0 .53-.05.56-2.51.56-1.15 0-2.34-.04-3.41-.08-.09-.01-.14.04-.14.13v1.16c0 .09.05.14.13.15.96.04 2.53.09 3.43.09 3.95 0 4.42-.01 4.42-2.15 0-1.71-.5-1.84-2.59-1.9z"
    />
  </g>
</svg>
