<svg xmlns="http://www.w3.org/2000/svg" version="1.1" viewBox="0 0 64 64">
  <path
    d="M58.25 22.11c-.32-1.94-1.42-3.21-3.31-3.78-.88-.27-1.77-.21-2.66-.03-1.11.23-2.22.51-3.33.74-2.33.47-4.66.94-6.99 1.37-2.67.5-5.36.84-8.07.95-2.92.13-5.83-.04-8.72-.46-1.71-.25-3.41-.53-5.1-.86-2.26-.44-4.5-.94-6.75-1.42-.93-.2-1.84-.45-2.8-.47-1.77-.03-3.17.66-4.13 2.17-.55.87-.71 1.85-.72 2.87.02.3.04.6.07.9.09.74.21 1.48.28 2.23.14 1.62.25 3.25.39 4.87.11 1.26.24 2.52.39 3.77.08.66.28 1.31.72 1.82.92 1.05 2.08 1.64 3.49 1.66 1.07.02 2.11-.2 3.15-.46 1.79-.46 3.59-.92 5.42-1.24 2.16-.37 4.33-.75 6.51-.98 1.44-.15 2.88-.29 4.32-.37 2.59-.13 5.18.05 7.75.39 1.55.21 3.11.43 4.65.68 1.97.32 3.92.68 5.85 1.21 1.25.34 2.51.67 3.82.76 1.47.1 2.72-.38 3.77-1.39.19-.19.35-.42.49-.65.32-.53.46-1.13.52-1.74.19-1.99.35-3.99.53-5.98.12-1.35.25-2.7.41-4.05.11-.82.19-1.66.05-2.51zM17.08 32.78c0 .14-.03.2-.19.2-2.57-.01-5.14 0-7.71 0-.16 0-.2-.05-.19-.2.01-.37.01-.74 0-1.11-.01-.16.05-.28.15-.41l4.11-5.16c.03-.04.07-.09.12-.16H9.19c-.15 0-.21-.03-.21-.2.01-.56.01-1.13 0-1.69 0-.14.04-.18.18-.18h7.74c.13 0 .17.03.17.17-.01.53 0 1.07-.01 1.6 0 .09-.05.19-.11.26-1.24 1.58-2.49 3.17-3.74 4.75-.06.08-.12.15-.2.26.1 0 .16.01.23.01h3.61c.18 0 .22.05.22.23 0 .54 0 1.09.01 1.63zm8.93-3.03c0 .57-.08 1.13-.29 1.67-.32.85-.95 1.4-1.78 1.71-1.28.48-2.58.44-3.84-.08-1.14-.48-1.76-1.4-1.83-2.62-.07-1.1-.05-2.21-.07-3.32h.02v-2.99c0-.16.05-.2.21-.2.65.01 1.3 0 1.95 0 .23 0 .23 0 .23.22v5.26c0 .17.01.34.04.5.1.58.48.97 1.06 1.05.3.04.62.04.92-.01.56-.08.89-.44.98-1.01.03-.18.03-.36.03-.54v-5.27c0-.17.05-.21.21-.21.66.01 1.32.01 1.99 0 .14 0 .19.03.19.18-.02 1.89-.02 3.77-.02 5.66zm7.8-3.8c-.09 0-.16.01-.23.01h-3.33c-.16 0-.22.04-.22.21.01.38 0 .75 0 1.16H33.06c.16 0 .21.05.2.21-.01.54 0 1.08 0 1.62v.19h-3.21v1.57h3.75v2h-6.58v-.2c0-2.85 0-5.7-.01-8.54 0-.18.04-.22.22-.22 2.05.01 4.1 0 6.15 0 .22 0 .22 0 .22.23.01.57.01 1.15.01 1.76zm9.68 5.02c-.99 1.63-2.47 2.42-4.36 2.34-1.86-.07-3.23-1-4.06-2.65-.92-1.84-.63-4.03.7-5.5.99-1.09 2.25-1.59 3.71-1.58 1.11.01 2.12.33 2.97 1.07.44.38.77.83 1.01 1.37-.05.02-.08.04-.12.05-.7.2-1.4.39-2.1.58-.09.02-.16.05-.22-.06-.4-.75-1.08-.94-1.86-.88-.78.06-1.31.49-1.59 1.2-.4 1.04-.39 2.1.03 3.13.37.91 1.17 1.3 2.17 1.14.77-.13 1.35-.51 1.64-1.26.01-.04.03-.08.04-.12 0-.02 0-.03.01-.07h-2.3c-.11 0-.16-.03-.16-.15v-1.86c0-.12.05-.15.16-.15h4.85c.09 0 .16.01.16.12.05 1.16-.07 2.28-.68 3.28zm10.84-.38c-.87 1.76-2.31 2.69-4.26 2.72-1.97.03-3.44-.88-4.34-2.63-1.03-2-.58-4.44 1.03-5.88 1.64-1.47 4.28-1.64 6.03-.39.54.39.95.88 1.25 1.47.02.04.03.08.06.15-.21.06-.39.11-.57.16-.55.15-1.1.3-1.64.46-.1.03-.17.04-.23-.07-.38-.71-1.02-.91-1.76-.88-.72.03-1.24.37-1.58 1-.22.41-.31.86-.35 1.32-.04.59-.01 1.17.17 1.74.33 1.06 1.14 1.58 2.24 1.42.79-.11 1.38-.5 1.68-1.26.01-.04.03-.08.04-.12 0-.02 0-.03.01-.08H49.85c-.15 0-.2-.03-.2-.19.01-.59.01-1.18 0-1.77 0-.16.05-.19.2-.19h4.78c.09 0 .19-.02.19.13.03 1-.04 1.98-.49 2.89z"
  />
  <path
    d="M16.26 42.65c-.49-.05-.99-.02-1.48-.03-.01 0-.02.01-.03.03v3.13c.48 0 .94.02 1.39 0 .82-.04 1.39-.65 1.42-1.48.04-.9-.47-1.56-1.3-1.65zm.36 1.98c-.14.34-.65.57-.98.45-.03-.01-.06-.07-.06-.1v-1.63c.37-.04.72-.04.95.28.23.3.24.65.09 1zM48.22 43.29c-.18-.45-.54-.69-1.03-.7-.5-.01-.89.2-1.09.66-.27.63-.27 1.28 0 1.91.2.46.58.69 1.08.67.51-.01.87-.27 1.05-.75.1-.28.14-.58.2-.89-.06-.3-.1-.62-.21-.9zm-.77 1.55c-.04.14-.12.26-.29.26-.18 0-.27-.12-.3-.26-.05-.21-.07-.42-.11-.63.04-.21.06-.42.11-.63.04-.15.13-.27.3-.26.16.01.25.12.29.26.13.41.13.84 0 1.26zM38.66 44.01c-.03-.02-.07-.04-.11-.07.45-.47.24-1.03-.15-1.22a1.18 1.18 0 00-1.11.01c-.43.22-.53.75-.22 1.13.02.03.05.06.07.1-.03.02-.06.04-.08.05-.64.34-.63 1.3.03 1.66.5.27 1.02.27 1.52 0 .65-.38.67-1.26.05-1.66zm-.8-.83c.15 0 .25.11.25.27 0 .17-.11.29-.26.28-.15 0-.25-.12-.25-.27 0-.17.1-.28.26-.28zm0 2.01c-.28 0-.46-.18-.46-.46 0-.27.19-.46.47-.45.26 0 .45.19.45.45 0 .27-.19.46-.46.46zM42.87 42.63c-.34-.1-.68-.07-1 .07-.49.22-.76.73-.66 1.26.1.51.51.85 1.07.87.04 0 .08.01.15.01-.21.31-.41.61-.63.94.27 0 .5.01.72-.01.08-.01.18-.06.22-.12.24-.33.46-.67.68-1.01.09-.14.18-.29.24-.44.26-.69-.08-1.37-.79-1.57zm-.39 1.61c-.27 0-.46-.21-.45-.51 0-.28.2-.49.46-.48.26 0 .45.22.45.5-.01.29-.2.49-.46.49zM19.47 45.79c.25 0 .46-.01.67 0 .11 0 .18-.03.21-.14.03-.11.1-.13.21-.13.3.01.59.01.89 0 .12 0 .2.02.24.15.02.05.07.11.11.12.26.01.52.01.81.01-.52-1.1-1.03-2.16-1.56-3.27-.54 1.09-1.05 2.16-1.58 3.26zm1.21-.91c.1-.24.2-.47.3-.69.02 0 .03 0 .05-.01.1.22.2.45.31.7h-.66zM25.68 42.62c-.25 0-.47.01-.69 0-.12 0-.15.04-.15.15V45.62c0 .09-.01.17.13.17.65 0 1.3 0 1.95-.01.04 0 .11-.06.11-.09.01-.19.01-.39.01-.61h-1.35c-.01-.82-.01-1.63-.01-2.46zM32.4 43.32h.74v2.29c0 .07-.03.17.09.17h.74v-3.16H32.4v.7z"
  />
</svg>
