<svg xmlns="http://www.w3.org/2000/svg" version="1.1" viewBox="0 0 64 64">
  <path
    d="M28.84 40.64V27.95h-3.41v12.69h3.41zM27.14 27.27c1.71 0 3.09-1.6 3.09-3.58s-1.39-3.58-3.09-3.58c-1.71 0-3.09 1.6-3.09 3.58-.01 1.98 1.38 3.58 3.09 3.58zM18.75 22.36h-3.41V43.9h3.41V32.81c0-2.4 2.12-2.35 2.12 0v9.28h3.41V32.02c0-2.88-2.35-3.04-2.86-3.04-.51 0-1.75 0-2.67 1.44v-8.06zM10.83 37.44v2.64c0 .6-.42 1.09-.94 1.09s-.94-.49-.94-1.09v-8.7c0-.6.42-1.09.94-1.09s.94.49.94 1.09v2.59h3.41v-1.93c0-1.53-1.07-2.76-2.39-2.76H7.92c-1.32 0-2.39 1.24-2.39 2.76v7.37c0 1.53 1.07 2.76 2.39 2.76h3.93c1.32 0 2.39-1.24 2.39-2.76v-1.98l-3.41.01zM45.33 35.63v2.64c0 .6-.42 1.09-.94 1.09s-.94-.49-.94-1.09v-8.7c0-.6.42-1.09.94-1.09s.94.49.94 1.09v2.59h3.41v-1.93c0-1.53-1.07-2.76-2.39-2.76h-3.93c-1.32 0-2.39 1.24-2.39 2.76v7.37c0 1.53 1.07 2.76 2.39 2.76h3.93c1.32 0 2.39-1.24 2.39-2.76v-1.98l-3.41.01zM35.61 38.72v2.64c0 .6-.42 1.09-.94 1.09s-.94-.49-.94-1.09v-8.7c0-.6.42-1.09.94-1.09s.94.49.94 1.09v2.59h3.41v-1.93c0-1.53-1.07-2.76-2.39-2.76H32.7c-1.32 0-2.39 1.24-2.39 2.76v7.37c0 1.53 1.07 2.76 2.39 2.76h3.93c1.32 0 2.39-1.24 2.39-2.76v-1.98l-3.41.01zM58.46 31.41c0-1.53-1.07-2.76-2.39-2.76h-3.93c-1.32 0-2.39 1.24-2.39 2.76v7.37c0 1.53 1.07 2.76 2.39 2.76h3.93c1.32 0 2.39-1.24 2.39-2.76v-7.37zm-3.41 8.04c0 .6-.42 1.09-.94 1.09s-.94-.49-.94-1.09v-8.7c0-.6.42-1.09.94-1.09s.94.49.94 1.09v8.7z"
  />
</svg>
