<svg xmlns="http://www.w3.org/2000/svg" version="1.1" viewBox="0 0 64 64">
  <path
    d="M6.18 39.94v-.25h-1.7v2.38h.28v-1.03h1.26v-.24H4.76v-.86zM6.86 39.69h.28v2.37h-.28zM9.95 39.69v.25h.79v2.13h.27v-2.13h.78v-.25zM38.5 39.7v.25h.79v2.12h.27v-2.12h.78v-.25zM17.47 39.69v1.06h-1.35v-1.06h-.27v2.38h.27V41h1.35v1.07h.27v-2.38zM25.61 41.82v-2.13h-.28v2.38h1.58v-.25zM53.61 41.82V39.7h-.27v2.37h1.58v-.25zM27.7 41.82V41h1.28v-.25H27.7v-.81h1.42v-.25h-1.69v2.38h1.72v-.25zM55.76 41.82V41h1.28v-.24h-1.28v-.81h1.42v-.25H55.5v2.37h1.71v-.25zM52.23 39.69h.27v2.38h-.27zM8.96 39.69h-.25l-1.06 2.37h.28l.27-.62h1.28l.27.62h.3l-1.09-2.37zm-.65 1.52L8.85 40l.53 1.2H8.31zM34.68 39.7h-.26l-1.06 2.37h.28l.27-.62h1.28l.27.62h.3l-1.08-2.37zm-.65 1.51l.54-1.2.53 1.2h-1.07zM15.04 41.52l.2.18c-.22.26-.55.42-.91.42-.67 0-1.21-.55-1.21-1.23 0-.68.54-1.23 1.21-1.23.35 0 .66.15.88.39l-.18.19c-.34-.36-.7-.34-.7-.34-.52 0-.94.44-.94.98s.42.98.94.98c0 .01.37.03.71-.34zM19.78 41.11s.65-.11.64-.69c0 0 .04-.69-.76-.72h-1.09v2.37h.27v-.91h.66l.68.91h.33l-.73-.96zm-.96-.21v-.96h.79s.53.01.53.45c0 0 .07.46-.56.51h-.76zM31.06 41.11s.65-.11.64-.69c0 0 .04-.69-.76-.72h-1.09v2.37h.27v-.91h.66l.68.91h.33l-.73-.96zm-.96-.21v-.96h.79s.53.01.53.45c0 0 .07.46-.56.51h-.76zM20.57 39.69h.32l.79 1.19.78-1.19h.31l-.97 1.44v.94h-.26v-.94zM24.47 40.16l.15-.22s-.32-.28-.76-.28-.85.19-.83.73c.02.54.68.54 1.17.73 0 0 .24.1.22.32-.02.23-.16.43-.58.41-.42-.02-.74-.34-.74-.34l-.16.2s.32.38.95.38c.63 0 .8-.41.8-.69 0-.28-.15-.5-.72-.65-.57-.15-.67-.22-.67-.52.01-.3.6-.54 1.17-.07zM59.3 40.18l.15-.22s-.32-.28-.76-.28-.85.19-.83.73c.02.54.68.54 1.17.73 0 0 .24.1.22.32-.02.23-.16.43-.58.41-.42-.02-.74-.34-.74-.34l-.16.2s.32.38.95.38c.63 0 .8-.41.8-.69 0-.28-.15-.5-.72-.65-.57-.15-.67-.22-.67-.52s.59-.53 1.17-.07zM36.09 39.69h.26v1.42s-.03.74.73.74c0 0 .66.02.68-.71v-1.46h.26v1.41s.07.97-.97 1.01c0 0-.94.06-.97-.99v-1.42zM41.71 39.65c-.66 0-1.19.55-1.19 1.23 0 .68.53 1.23 1.19 1.23.66 0 1.19-.55 1.19-1.23 0-.72-.54-1.23-1.19-1.23zm0 2.22c-.51 0-.92-.44-.92-.98s.41-.98.92-.98.92.4.92.98c.01.54-.41.98-.92.98zM47.7 39.68c-.66 0-1.19.55-1.19 1.23 0 .68.53 1.23 1.19 1.23.66 0 1.19-.55 1.19-1.23 0-.73-.53-1.23-1.19-1.23zm.01 2.21c-.51 0-.92-.44-.92-.98s.41-.98.92-.98.92.4.92.98c0 .54-.41.98-.92.98zM45.54 39.69l-.86 1.29-.86-1.29h-.26v2.38h.26v-1.9l.86 1.25.86-1.26v1.91h.27v-2.38zM51.03 40.84s.38-.16.36-.59c-.02-.43-.5-.55-.73-.56h-1.03v2.38h1.11s.76-.01.78-.64c0 0 .02-.46-.49-.59zm-1.15-.91h.74c.54.01.5.39.5.39 0 .41-.46.42-.46.42h-.77v-.81zm.86 1.89h-.86v-.83h.82s.56 0 .55.42c-.01.42-.51.41-.51.41zM10.87 35.36h2.72v-4.34h8.77v-2.53h-8.81v-2.96h9.24v-2.64H10.87zM37.57 35.36h2.94l4.97-8.45 4.86 8.45h3l-7.88-13.49zM35.4 30.43c-.55 1.75-2.21 3.02-4.16 3.02-2.41 0-4.36-1.93-4.36-4.3s1.95-4.3 4.36-4.3a4.36 4.36 0 014.15 2.98H38c-.62-3.12-3.41-5.47-6.75-5.47-3.8 0-6.88 3.04-6.88 6.8 0 3.75 3.08 6.8 6.88 6.8 3.36 0 6.15-2.37 6.76-5.51l-2.61-.02z"
  />
</svg>
