<svg xmlns="http://www.w3.org/2000/svg" version="1.1" viewBox="0 0 64 64">
  <path
    d="M43.1 44.8c-.23-.06-.4-.31-.4-.62v-3.95l2.46 4.42-.16.16h2.54v-.01c-.23-.06-.4-.31-.4-.62v-4.6c0-.31.17-.57.4-.62v-.01h-2.21c.24.03.44.3.44.63v3.25l.1.31-.13-.2-2-3.71v-.28h-2.85c.24.03.44.3.44.63v4.6c0 .33-.19.6-.44.63l2.21-.01zM26.17 44.8c-.23-.06-.4-.31-.4-.62v-1.94h2.77v1.94c0 .33-.19.6-.44.63h2.21v-.01c-.23-.06-.4-.31-.4-.62v-4.6c0-.31.17-.57.4-.62v-.01H28.1c.24.03.44.3.44.63v1.53h-2.77v-1.53c0-.31.17-.57.4-.62v-.01h-2.21c.24.03.44.3.44.63v4.6c0 .33-.19.6-.44.63l2.21-.01zM33.04 39.61v3.51c0 .98 1.23 1.77 2.74 1.77 1.51 0 2.74-.79 2.74-1.77V39.6c0-.31.17-.57.4-.62v-.01h-2.21c.24.03.44.3.44.63l.03 3.24c-.02.58-.77.91-1.39.91-.63 0-1.38-.42-1.38-1.05l.02-3.09c0-.31.17-.57.4-.62v-.01h-2.21c.23.04.42.3.42.63z"
    fill="#fff"
  />
  <path
    d="M50.04 39.32c0-.07-.08-.09-.14-.09h-.12v.18h.12c.08.01.14-.01.14-.09z"
  />
  <path
    d="M49.89 39.96c.26 0 .47-.2.47-.49 0-.28-.21-.48-.47-.48s-.47.2-.47.48c0 .29.21.49.47.49zm-.25-.83h.26c.17 0 .27.05.27.2 0 .13-.08.18-.18.18l.19.3h-.14l-.17-.3h-.09v.3h-.14v-.68z"
  />
  <path
    d="M17.17 39.89c.28-.07.8.01 1.14.07v4.22c0 .33-.19.6-.44.63h2.21v-.01c-.23-.06-.4-.31-.4-.62v-4.19c.3-.06.98-.19 1.32-.11.4.09 1.19.64 1.19.64l-.52-1.26.15-.31H16.35l.15.31-.52 1.26s.79-.54 1.19-.63zM13.69 47.32h36.87v.4H13.69z"
    fill="#fff"
  />
  <path
    d="M10.62 10.98v42.04h42.76V10.98H10.62zm39.27 27.88c.34 0 .63.24.63.62s-.3.62-.63.62-.63-.24-.63-.62c-.01-.38.29-.62.63-.62zm-9 5.95c.24-.03.44-.3.44-.63v-4.6c0-.33-.19-.6-.44-.63h2.83v.28l2 3.71.13.2-.1-.31v-3.25c0-.33-.19-.6-.44-.63h2.21v.01c-.23.06-.4.31-.4.62v4.6c0 .31.17.57.4.62v.01H45l.16-.16-2.46-4.42v3.95c0 .31.17.57.4.62v.01h-2.21zm-8.28-5.83h2.21v.01c-.23.06-.4.31-.4.62l-.02 3.09c0 .63.76 1.05 1.38 1.05.63 0 1.38-.33 1.39-.91l-.03-3.24c0-.33-.19-.59-.44-.63h2.21v.01c-.23.06-.4.31-.4.62v3.52c0 .98-1.23 1.77-2.74 1.77-1.51 0-2.74-.79-2.74-1.77v-3.51c.01-.33-.18-.59-.42-.63zm-8.66 5.83c.24-.03.44-.3.44-.63v-4.6c0-.33-.19-.6-.44-.63h2.21v.01c-.23.06-.4.31-.4.62v1.53h2.77v-1.53c0-.33-.19-.6-.44-.63h2.21v.01c-.23.06-.4.31-.4.62v4.6c0 .31.17.57.4.62v.01h-2.2c.24-.03.44-.3.44-.63v-1.94h-2.77v1.94c0 .31.17.57.4.62v.01h-2.22zm-7.6-5.86h5.47l-.15.31.52 1.26s-.79-.54-1.19-.64c-.34-.08-1.02.04-1.32.11v4.19c0 .31.17.57.4.62v.01h-2.21c.24-.03.44-.3.44-.63v-4.22c-.34-.06-.86-.14-1.14-.07-.4.09-1.19.64-1.19.64l.52-1.26-.15-.32zm34.21 8.78H13.69v-.4h36.87v.4z"
  />
  <path
    d="M49.78 39.52h.09l.17.3h.14l-.19-.3c.1-.01.18-.06.18-.18 0-.15-.1-.2-.27-.2h-.26v.69h.14v-.31zm0-.29h.12c.06 0 .14.01.14.09s-.06.1-.14.1h-.12v-.19z"
    fill="#fff"
  />
  <path
    d="M49.89 40.09c.34 0 .63-.24.63-.62 0-.37-.3-.62-.63-.62s-.63.24-.63.62c-.01.38.29.62.63.62zm0-1.1c.26 0 .47.2.47.48 0 .28-.21.49-.47.49s-.47-.2-.47-.49c0-.28.21-.48.47-.48z"
    fill="#fff"
  />
</svg>
