<svg xmlns="http://www.w3.org/2000/svg" version="1.1" viewBox="0 0 64 64">
  <path
    d="M40.86 42.1a.78.78 0 00.27-.58c0-.61-.35-.92-1.06-.92h-1.11v3.21h1.13c.93 0 1.12-.53 1.12-.98a.829.829 0 00-.35-.73m-.77-.24h-.5v-.67h.49c.33 0 .38.17.38.34 0 .23-.12.33-.37.33m.02 1.36h-.51v-.79h.52c.36 0 .44.15.44.39-.01.28-.15.4-.45.4M43.85 40.57l-1.02 3.25h.69l.21-.74h.83l.21.74h.69l-1.02-3.25h-.59zm.57 1.95h-.53l.27-.93.26.93zM48.92 42.52l-1.18-1.92h-.55v3.21h.63l-.01-1.92 1.18 1.92h.56V40.6h-.64zM52.67 40.55c-.9 0-1.34.54-1.34 1.65s.44 1.65 1.34 1.65c.37 0 .58-.07.75-.14l.06-.03v-.63l-.12.05c-.21.09-.38.13-.65.13-.5 0-.72-.33-.72-1.05 0-.73.22-1.05.72-1.05.27 0 .44.04.65.13l.12.05v-.63l-.06-.03c-.17-.03-.38-.1-.75-.1M56.73 40.57h-.59l-1.02 3.25h.69l.21-.74h.83l.21.74h.69l-1.02-3.25zm-.03 1.95h-.53l.27-.93.26.93zM49.14 37.9c-4.32 0-4.88-3.05-4.88-5.71s.55-5.71 4.88-5.71c4.32 0 4.88 3.05 4.88 5.71s-.56 5.71-4.88 5.71m0-9.03c-1.79 0-2.09 1.03-2.09 3.33 0 2.31.3 3.33 2.09 3.33 1.79 0 2.09-1.03 2.09-3.33.01-2.31-.29-3.33-2.09-3.33M24.64 26.49c-.91 0-1.83.22-2.69.64-.19-.63-.77-1.08-1.46-1.08h-1.24v11.6h2.76v-8.24c.45-.24 1.16-.53 2.22-.53 1.02 0 1.46.4 1.46 1.35v7.41h2.76v-7.63c0-2.33-1.28-3.52-3.81-3.52"
  />
  <path
    d="M38.88 26.49c-.99 0-1.88.21-2.7.62-.2-.61-.77-1.05-1.45-1.05h-1.24v17.76h2.76v-6.57c.79.43 1.73.67 2.62.67 2.97 0 4.41-1.87 4.41-5.71.02-3.85-1.43-5.72-4.4-5.72m-.55 9.02c-1.01 0-1.7-.33-2.08-.53v-5.56c.38-.21 1.06-.53 2.08-.53 1.81 0 2.18 1.27 2.18 3.31.01 2.05-.36 3.31-2.18 3.31M32.36 37.66v-11.6H29.6v10.08c0 .84.69 1.53 1.53 1.53l1.23-.01zM30.98 25.14a1.73 1.73 0 000-3.46c-.96 0-1.74.78-1.74 1.73s.78 1.73 1.74 1.73M54.99 20.15v15.98c0 .84.69 1.53 1.53 1.53h1.24V21.67c0-.84-.69-1.53-1.53-1.53l-1.24.01zM16.88 20.15c-.84 0-1.53.69-1.53 1.53v10.61c0 1.13 0 2.66-1.53 4.01-2.09 1.85-4.83.94-4.9.92 1.24.62 2.6.7 3.25.7 1.39 0 5.93-.39 5.93-5.42V20.16l-1.22-.01z"
  />
  <path
    d="M14.79 34.33c-.51.69-1.38 1.03-2.62 1.03-2.13 0-3.17-1-3.17-3.08V21.67H6.24v10.82c0 2.14.82 3.44 1.88 4.23.68.16 4.85 1.01 6.67-2.39"
  />
</svg>
