<svg xmlns="http://www.w3.org/2000/svg" version="1.1" viewBox="0 0 64 64">
  <path
    d="M6.35 21.87h3.23l1.5 4.93c.05.15.1.31.15.48.05.18.11.37.18.57.48 1.47.86 2.97 1.14 4.49.18-1.21.32-2.06.44-2.54l.47-2.02.18-.79 1.26-5.12h3.19l-3.95 12.9v9.74h-3.05v-9.74l-4.74-12.9zM30.92 33.75c0 4-.45 6.84-1.34 8.52-.89 1.68-2.38 2.52-4.48 2.52-2.2 0-3.75-.9-4.65-2.7-.89-1.77-1.34-4.92-1.34-9.43 0-4.03.44-6.88 1.32-8.55.88-1.67 2.39-2.51 4.53-2.52 1.9 0 3.31.65 4.23 1.95.61.87 1.05 2.11 1.32 3.71.27 1.48.41 3.65.41 6.5zm-3.2.32c0-3.92-.18-6.52-.53-7.8s-1.07-1.92-2.16-1.94c-1.09 0-1.81.59-2.17 1.77-.36 1.18-.54 3.58-.53 7.18 0 3.31.19 5.61.56 6.89.38 1.21 1.1 1.82 2.14 1.82 1.05 0 1.75-.57 2.12-1.7.38-1.11.57-3.19.57-6.22zM45.3 33.75c0 4-.45 6.84-1.34 8.52-.89 1.68-2.38 2.52-4.48 2.52-2.2 0-3.75-.9-4.65-2.7-.89-1.77-1.34-4.91-1.34-9.43 0-4.03.44-6.88 1.32-8.55s2.39-2.51 4.53-2.53c1.9 0 3.31.65 4.23 1.95.61.87 1.05 2.11 1.32 3.71.27 1.49.41 3.66.41 6.51zm-3.2.32c0-3.92-.18-6.52-.53-7.8-.35-1.28-1.07-1.92-2.16-1.94-1.09 0-1.81.59-2.17 1.77-.36 1.18-.54 3.58-.53 7.18 0 3.31.19 5.61.56 6.89.38 1.21 1.1 1.82 2.15 1.82 1.05 0 1.75-.57 2.12-1.7.36-1.11.56-3.19.56-6.22zM46.49 21.87h2.97l1.57 4.38c.62 1.73.98 3 1.1 3.8.11-.5.23-.98.36-1.45.13-.47.27-.94.42-1.41l.21-.66 1.46-4.66h3.09l-4.2 11.15 4.2 11.49h-3.09l-1.49-4.31c-.3-.86-.55-1.63-.73-2.32-.17-.6-.3-1.21-.4-1.83-.08.63-.21 1.26-.4 1.87l-.51 1.61-.26.85-1.31 4.11h-3.23L50.51 33l-4.02-11.13z"
  />
</svg>
